<?xml version="1.0" encoding="UTF-8"?>
<svg id="Layer_1" data-name="Layer 1" xmlns="http://www.w3.org/2000/svg" viewBox="0 0 1252.63 220.78">
  <defs>
    <style>
      .cls-1 {
        fill: #32492d;
        stroke-width: 0px;
      }
    </style>
  </defs>
  <path class="cls-1" d="m25.54,23.15h60.24c13.66,0,25.22,2.08,34.68,6.25,9.46,4.17,16.66,10.31,21.62,18.43,4.96,8.12,7.44,18.1,7.44,29.93,0,8.33-1.69,15.93-5.06,22.81-3.37,6.87-8.21,12.71-14.5,17.5-6.29,4.79-13.81,8.35-22.56,10.69l-6.75,2.62h-56.62l-.25-19.62h42.74c8.67,0,15.87-1.52,21.62-4.56,5.75-3.04,10.08-7.14,13-12.31,2.92-5.17,4.38-10.87,4.38-17.12,0-7-1.38-13.12-4.12-18.37-2.75-5.25-7.06-9.31-12.93-12.19s-13.44-4.31-22.68-4.31h-36.12v162.22h-24.12V23.15Zm106.36,181.97l-44.24-82.49,25.12-.12,44.87,81.11v1.5h-25.75Z"/>
  <path class="cls-1" d="m235.88,207.62c-9.42,0-17.93-1.6-25.56-4.81-7.62-3.21-14.17-7.73-19.62-13.56-5.46-5.83-9.64-12.75-12.56-20.75-2.92-8-4.37-16.75-4.37-26.25v-5.25c0-11,1.62-20.81,4.87-29.43,3.25-8.62,7.67-15.94,13.25-21.93,5.58-6,11.91-10.54,19-13.62,7.08-3.08,14.41-4.62,22-4.62,9.67,0,18.02,1.67,25.06,5,7.04,3.33,12.81,7.98,17.31,13.94,4.5,5.96,7.83,12.96,10,21,2.17,8.04,3.25,16.81,3.25,26.31v10.37h-100.98v-18.87h77.86v-1.75c-.33-6-1.56-11.83-3.69-17.5-2.12-5.67-5.48-10.33-10.06-14-4.58-3.67-10.83-5.5-18.75-5.5-5.25,0-10.08,1.11-14.5,3.31-4.42,2.21-8.21,5.48-11.37,9.81-3.17,4.33-5.62,9.62-7.37,15.87-1.75,6.25-2.62,13.46-2.62,21.62v5.25c0,6.42.89,12.44,2.69,18.06,1.79,5.62,4.42,10.56,7.87,14.81,3.46,4.25,7.67,7.58,12.62,10,4.96,2.42,10.6,3.62,16.93,3.62,8.16,0,15.08-1.67,20.75-5,5.67-3.33,10.62-7.79,14.87-13.37l14,11.12c-2.92,4.42-6.62,8.62-11.12,12.62-4.5,4-10.02,7.25-16.56,9.75-6.54,2.5-14.27,3.75-23.18,3.75Z"/>
  <path class="cls-1" d="m394.23,169.25c0-3.33-.73-6.44-2.19-9.31-1.46-2.87-4.42-5.5-8.87-7.87-4.46-2.37-11.14-4.44-20.06-6.19-7.5-1.58-14.27-3.46-20.31-5.62-6.04-2.17-11.17-4.79-15.37-7.87-4.21-3.08-7.44-6.71-9.69-10.87-2.25-4.17-3.37-9.04-3.37-14.62s1.19-10.37,3.56-15.12c2.38-4.75,5.75-8.96,10.12-12.62,4.37-3.67,9.64-6.54,15.81-8.62,6.17-2.08,13.04-3.12,20.62-3.12,10.83,0,20.08,1.92,27.75,5.75,7.67,3.83,13.54,8.94,17.62,15.31,4.08,6.37,6.12,13.44,6.12,21.18h-23.12c0-3.75-1.11-7.39-3.31-10.94-2.21-3.54-5.42-6.48-9.62-8.81-4.21-2.33-9.35-3.5-15.43-3.5-6.42,0-11.6.98-15.56,2.94-3.96,1.96-6.83,4.44-8.62,7.44-1.79,3-2.69,6.17-2.69,9.5,0,2.5.44,4.73,1.31,6.69.88,1.96,2.44,3.75,4.69,5.37,2.25,1.62,5.42,3.15,9.5,4.56,4.08,1.42,9.29,2.83,15.62,4.25,11.08,2.5,20.2,5.5,27.37,9,7.16,3.5,12.5,7.79,16,12.87,3.5,5.08,5.25,11.25,5.25,18.5,0,5.92-1.23,11.33-3.69,16.25-2.46,4.92-6,9.14-10.62,12.69-4.62,3.54-10.12,6.29-16.5,8.25s-13.52,2.94-21.43,2.94c-11.92,0-22-2.12-30.25-6.37-8.25-4.25-14.5-9.75-18.75-16.5-4.25-6.75-6.37-13.87-6.37-21.37h23.25c.33,6.33,2.17,11.35,5.5,15.06,3.33,3.71,7.41,6.33,12.25,7.87,4.83,1.54,9.62,2.31,14.37,2.31,6.33,0,11.64-.83,15.93-2.5,4.29-1.67,7.56-3.96,9.81-6.87,2.25-2.92,3.37-6.25,3.37-10Z"/>
  <path class="cls-1" d="m503.71,207.62c-9.42,0-17.93-1.6-25.56-4.81-7.62-3.21-14.17-7.73-19.62-13.56-5.46-5.83-9.64-12.75-12.56-20.75-2.92-8-4.37-16.75-4.37-26.25v-5.25c0-11,1.62-20.81,4.87-29.43,3.25-8.62,7.67-15.94,13.25-21.93,5.58-6,11.91-10.54,19-13.62,7.08-3.08,14.41-4.62,22-4.62,9.67,0,18.02,1.67,25.06,5,7.04,3.33,12.81,7.98,17.31,13.94,4.5,5.96,7.83,12.96,10,21,2.17,8.04,3.25,16.81,3.25,26.31v10.37h-100.98v-18.87h77.86v-1.75c-.33-6-1.56-11.83-3.69-17.5-2.12-5.67-5.48-10.33-10.06-14-4.58-3.67-10.83-5.5-18.75-5.5-5.25,0-10.08,1.11-14.5,3.31-4.42,2.21-8.21,5.48-11.37,9.81-3.17,4.33-5.62,9.62-7.37,15.87-1.75,6.25-2.62,13.46-2.62,21.62v5.25c0,6.42.89,12.44,2.69,18.06,1.79,5.62,4.42,10.56,7.87,14.81,3.46,4.25,7.67,7.58,12.62,10,4.96,2.42,10.6,3.62,16.93,3.62,8.16,0,15.08-1.67,20.75-5,5.67-3.33,10.62-7.79,14.87-13.37l14,11.12c-2.92,4.42-6.62,8.62-11.12,12.62-4.5,4-10.02,7.25-16.56,9.75-6.54,2.5-14.27,3.75-23.18,3.75Z"/>
  <path class="cls-1" d="m606.44,91.14v113.98h-23.12V69.9h22.5l.62,21.25Zm42.24-22l-.12,21.5c-1.92-.42-3.73-.69-5.44-.81-1.71-.12-3.65-.19-5.81-.19-5.33,0-10.04.83-14.12,2.5-4.08,1.67-7.54,4-10.37,7-2.83,3-5.06,6.56-6.69,10.69-1.62,4.12-2.69,8.65-3.19,13.56l-6.5,3.75c0-8.16.81-15.83,2.44-23,1.62-7.17,4.14-13.52,7.56-19.06,3.42-5.54,7.77-9.87,13.06-13,5.29-3.12,11.6-4.69,18.93-4.69,1.67,0,3.58.19,5.75.56,2.17.37,3.67.77,4.5,1.19Z"/>
  <path class="cls-1" d="m682.18,23.15l53.12,154.35,6.62,27.62h-18.62l-67.24-181.97h26.12Zm50.12,154.35l53.62-154.35h26.12l-67.36,181.97h-18.62l6.25-27.62Z"/>
  <path class="cls-1" d="m911.01,123.14l.25,16.25h-23.37c-6.58,0-12.46.52-17.62,1.56-5.17,1.04-9.5,2.6-13,4.69-3.5,2.08-6.17,4.69-8,7.81-1.83,3.12-2.75,6.77-2.75,10.94s.96,8.12,2.88,11.62c1.92,3.5,4.81,6.27,8.69,8.31,3.88,2.04,8.64,3.06,14.31,3.06,7.08,0,13.33-1.5,18.75-4.5,5.42-3,9.73-6.67,12.93-11,3.21-4.33,4.94-8.54,5.19-12.62l9.87,11.12c-.58,3.5-2.17,7.37-4.75,11.62-2.58,4.25-6.02,8.31-10.31,12.19-4.29,3.87-9.37,7.08-15.25,9.62-5.87,2.54-12.48,3.81-19.81,3.81-9.17,0-17.18-1.79-24.06-5.37s-12.21-8.39-16-14.44c-3.79-6.04-5.69-12.81-5.69-20.31s1.42-13.64,4.25-19.18c2.83-5.54,6.92-10.16,12.25-13.87,5.33-3.71,11.75-6.52,19.25-8.44,7.5-1.92,15.87-2.87,25.12-2.87h26.87Zm-4,58.86v-69.61c0-5.33-1.06-9.98-3.19-13.94-2.12-3.96-5.31-7.02-9.56-9.19-4.25-2.17-9.5-3.25-15.75-3.25-5.83,0-10.94,1-15.31,3-4.38,2-7.79,4.62-10.25,7.87-2.46,3.25-3.69,6.75-3.69,10.5h-23.12c0-4.83,1.25-9.62,3.75-14.37,2.5-4.75,6.1-9.06,10.81-12.94,4.71-3.87,10.37-6.96,17-9.25,6.62-2.29,14.02-3.44,22.18-3.44,9.83,0,18.52,1.67,26.06,5,7.54,3.33,13.46,8.35,17.75,15.06,4.29,6.71,6.44,15.1,6.44,25.18v62.99c0,4.5.39,9.29,1.19,14.37.79,5.08,1.98,9.46,3.56,13.12v2h-24.12c-1.17-2.67-2.08-6.23-2.75-10.69-.67-4.46-1-8.6-1-12.44Z"/>
  <path class="cls-1" d="m1053.61,145.38l9.62-.25c0,9-.94,17.31-2.81,24.93-1.87,7.62-4.9,14.23-9.06,19.81-4.17,5.58-9.62,9.94-16.37,13.06s-14.96,4.69-24.62,4.69c-6.58,0-12.6-.96-18.06-2.87-5.46-1.92-10.14-4.87-14.06-8.87-3.92-4-6.94-9.21-9.06-15.62-2.12-6.42-3.19-14.12-3.19-23.12v-87.23h23.12v87.48c0,6.08.69,11.1,2.06,15.06,1.37,3.96,3.25,7.08,5.62,9.37,2.37,2.29,5.04,3.9,8,4.81,2.96.92,6.02,1.37,9.19,1.37,9.83,0,17.62-1.89,23.37-5.69,5.75-3.79,9.89-8.91,12.44-15.37,2.54-6.46,3.81-13.64,3.81-21.56Zm-4.37,28.5v-103.98h23.25v135.23h-22.12l-1.12-31.24Z"/>
  <path class="cls-1" d="m1132.73,13.16v191.97h-23.25V13.16h23.25Z"/>
  <path class="cls-1" d="m1226.46,69.9v17.75h-73.11v-17.75h73.11Zm-48.37-32.87h23.12v134.6c0,4.58.71,8.04,2.12,10.37,1.42,2.33,3.25,3.87,5.5,4.62,2.25.75,4.67,1.12,7.25,1.12,1.92,0,3.94-.19,6.06-.56,2.12-.38,3.73-.69,4.81-.94l.12,18.87c-1.83.58-4.23,1.14-7.19,1.69-2.96.54-6.52.81-10.69.81-5.67,0-10.87-1.12-15.62-3.37-4.75-2.25-8.52-6.02-11.31-11.31-2.79-5.29-4.19-12.44-4.19-21.43V37.03Z"/>
</svg>